<?xml version="1.0" encoding="UTF-8"?><svg id="Layer_1" xmlns="http://www.w3.org/2000/svg" viewBox="0 0 1920 1080"><defs><style>.cls-1{fill:#bc5c5f;}.cls-2{stroke:#ffb850;stroke-width:5.35px;}.cls-2,.cls-3{fill:none;stroke-miterlimit:10;}.cls-4{fill:#fff;}.cls-5{fill:#6f3738;}.cls-6{fill:#d6a750;}.cls-7{fill:#8e3300;}.cls-8{fill:#af452b;}.cls-3{stroke:#a23f28;stroke-width:2.51px;}.cls-9{fill:#ccc;}.cls-10{isolation:isolate;opacity:.2;}</style></defs><g><circle class="cls-6" cx="270.21" cy="619.1" r="61.02"/><path class="cls-4" d="M220.41,635.75c5.26,15.76,17.67,28.1,33.46,33.25,.52,.17,1.05,.33,1.58,.49,21.06,6.17,43.74-1.42,56.85-19.01,.33-.44,.65-.89,.97-1.34,16.59-23.79,10.76-56.52-13.02-73.11-4.21-2.94-8.83-5.24-13.71-6.84-.52-.17-1.05-.33-1.58-.49-21.06-6.17-43.74,1.42-56.85,19.01-.33,.44-.65,.89-.97,1.34-9.52,13.62-12.01,30.94-6.73,46.69Z"/><circle class="cls-1" cx="270.21" cy="619.1" r="47.96"/><path class="cls-10" d="M254.92,573.77c.69-.23,1.38-.44,2.07-.64-24.29,10.57-35.42,38.82-24.85,63.11,9.59,22.04,34,33.58,57.12,27-1.27,.55-2.58,1.06-3.92,1.51-25.12,8.4-52.3-5.16-60.7-30.28-8.4-25.12,5.16-52.3,30.28-60.7h0Z"/><path class="cls-4" d="M253.78,570.42c.82-.27,1.7,.17,1.98,.99l2.16,6.46c.27,.82-.17,1.7-.99,1.98s-1.7-.17-1.98-.99l-2.16-6.46c-.27-.82,.17-1.7,.99-1.98Z"/><path class="cls-4" d="M227.14,589.05c.31-.45,.64-.9,.97-1.34,.51-.21,1.09-.13,1.53,.2l5.42,4.12c.69,.52,.82,1.5,.3,2.19s-1.5,.82-2.19,.3l-5.42-4.12c-.42-.32-.65-.83-.61-1.35Z"/><path class="cls-4" d="M218.76,618.91c.05-.86,.8-1.51,1.65-1.46h0l6.8,.43c.86,.05,1.51,.8,1.46,1.66-.05,.86-.8,1.51-1.66,1.46h0l-6.8-.43c-.86-.06-1.51-.8-1.46-1.66Z"/><path class="cls-4" d="M282.01,576.34l1.85-6.55c.15-.53,.57-.94,1.1-1.08,.53,.15,1.05,.31,1.58,.49,.35,.4,.47,.94,.32,1.44l-1.85,6.55c-.23,.83-1.1,1.31-1.93,1.08-.83-.23-1.31-1.1-1.08-1.93Z"/><path class="cls-4" d="M303.82,592.27l5.17-4.43c.65-.56,1.64-.49,2.2,.17s.49,1.64-.17,2.2l-5.17,4.43c-.65,.56-1.64,.49-2.2-.17s-.49-1.64,.17-2.2h0Z"/><path class="cls-4" d="M283.21,658.44c.82-.27,1.7,.17,1.98,.99l2.16,6.46c.27,.82-.17,1.7-.99,1.98s-1.7-.17-1.98-.99l-2.16-6.46c-.27-.82,.17-1.7,.99-1.98Z"/><path class="cls-4" d="M253.55,667.56l1.85-6.55c.23-.83,1.1-1.31,1.93-1.08s1.31,1.1,1.08,1.93l-1.85,6.55c-.15,.53-.57,.94-1.1,1.08-.53-.15-1.05-.31-1.58-.49-.35-.4-.47-.94-.32-1.44Z"/><path class="cls-4" d="M229.38,647.98l5.17-4.43c.65-.56,1.64-.49,2.2,.17s.49,1.64-.17,2.2h0l-5.17,4.43c-.65,.56-1.64,.49-2.2-.17-.56-.65-.49-1.64,.17-2.2h0Z"/><path class="cls-4" d="M305.05,643.97c.52-.69,1.5-.82,2.19-.3l5.42,4.12c.42,.32,.65,.83,.61,1.35-.31,.45-.64,.9-.97,1.34-.51,.21-1.09,.13-1.53-.2l-5.42-4.12c-.69-.52-.82-1.5-.3-2.19h0Z"/><path class="cls-4" d="M311.74,618.65c.05-.86,.8-1.51,1.65-1.46h0l6.8,.43c.86,.05,1.51,.8,1.46,1.66s-.8,1.51-1.66,1.46l-6.8-.43c-.86-.06-1.51-.8-1.46-1.66Z"/><path class="cls-5" d="M267.9,619.05c.28,1.78,1.95,3,3.73,2.72l27.76-4.31c1.78-.28,3-1.95,2.72-3.73-.28-1.78-1.95-3-3.73-2.72l-27.76,4.31c-1.78,.28-3,1.95-2.72,3.73Z"/><path class="cls-5" d="M249.99,657.4c1.05,.53,2.33,.11,2.86-.94l18.9-37.51c.53-1.05,.11-2.33-.94-2.86-1.05-.53-2.33-.11-2.86,.94l-18.9,37.51c-.53,1.05-.11,2.33,.94,2.86Z"/><circle class="cls-9" cx="270.21" cy="619.1" r="3.69"/></g><path class="cls-7" d="M1771.55,806c-5.24-10.35-15.93-16.04-26.71-15.66,5.39-8.4,5.91-19.43,.4-28.7-7.91-13.29-25.23-17.91-38.71-10.32-7.64,4.3-12.12,14.97-13.64,19.56l-20.62,60.76,66.24,12.96c9.14,.85,13.34,1.24,18.24-.67,15.18-5.92,22.12-23.46,14.8-37.92Z"/><g><circle class="cls-8" cx="1061.3" cy="929.74" r="30.32"/><path class="cls-3" d="M1055.34,955.04c-23.43-13.39-13.39-35.98-2.51-40.16,11.16-4.29,24.08-1.33,28.45,9.2,1.97,4.74,.42,17.15-9.62,22.17-7.99,3.99-18.88-1.59-20.08-10.04-.84-5.86,4.16-10.22,10.04-10.88,7.53-.84,10.04,1.67,10.88,5.02,0,0,.84,3.35-2.51,6.69-3.08,3.08-5.02,2.51-5.02,2.51-2.35,.68-5.02-.84-5.02-4.18,0-1.65,1.67-3.35,3.35-2.51"/></g><g><ellipse class="cls-2" cx="623.28" cy="320.97" rx="11.86" ry="16.69" transform="translate(-77.74 312.08) rotate(-26.52)"/><line class="cls-2" x1="610.88" y1="327.16" x2="556.91" y2="354.09"/><line class="cls-2" x1="563.3" y1="350.91" x2="557.92" y2="340.14"/><line class="cls-2" x1="572.26" y1="347.91" x2="566.89" y2="337.14"/></g></svg>